<?xml version="1.0" encoding="UTF-8"?>
<svg id="Layer_2" data-name="Layer 2" xmlns="http://www.w3.org/2000/svg" viewBox="0 0 425.06 62.12">
  <defs>
    <style>
      .cls-1 {
        fill: #763e3e;
      }

      .cls-1, .cls-2 {
        stroke-width: 0px;
      }

      .cls-2 {
        fill: #fff;
      }
    </style>
  </defs>
  <g id="Layer_1-2" data-name="Layer 1">
    <g>
      <g>
        <polygon class="cls-2" points="133.44 26.75 127.17 26.75 127.17 16.6 117.91 16.6 117.91 46.16 127.17 46.16 127.17 36.29 133.44 36.29 133.44 46.16 142.7 46.16 142.7 16.6 133.44 16.6 133.44 26.75"/>
        <path class="cls-2" d="M156.31,16.6l-9.68,29.57h9.63l.94-2.98h7.84l.94,2.98h9.7l-9.72-29.57h-9.64ZM158.72,36.24l2.33-8.33h.15l2.37,8.33h-4.86Z"/>
        <path class="cls-2" d="M201.56,28.31l3.86-11.71h-9.94l-2.18,7.37c-.33,1.13-.73,1.88-1.2,2.26-.47.38-1.28.56-2.43.56h-.8v-10.19h-9.26v29.57h9.26v-10h2.49l4.11,10h10.53l-6.22-13.91c.64-1.01,1.24-2.33,1.8-3.95Z"/>
        <path class="cls-2" d="M218.28,16.6l-9.68,29.57h9.63l.94-2.98h7.84l.94,2.98h9.7l-9.72-29.57h-9.64ZM220.69,36.24l2.33-8.33h.15l2.37,8.33h-4.86Z"/>
        <polygon class="cls-2" points="278.91 26.1 286.68 26.1 286.68 46.16 295.93 46.16 295.93 26.1 303.7 26.1 303.7 16.6 278.91 16.6 278.91 26.1"/>
        <path class="cls-2" d="M331.49,33.06c.68-1.55,1.01-3.32,1.01-5.31,0-2.28-.44-4.26-1.32-5.94-.88-1.68-2.14-2.96-3.79-3.86-1.65-.9-3.59-1.34-5.83-1.34h-13.23v29.57h9.18v-7.27h1.33c.52,0,.98.32,1.17.79l2.55,6.48h10.14l-4.12-9.35c1.27-.95,2.25-2.2,2.93-3.75ZM322.42,30.32c-.55.56-1.33.85-2.35.85h-2.72v-6.51h2.72c1.02,0,1.8.27,2.35.82.55.55.82,1.36.82,2.43s-.27,1.84-.82,2.41Z"/>
        <polygon class="cls-2" points="346.73 35.42 356.02 35.42 356.02 27.87 346.73 27.87 346.73 24.36 357.02 24.36 357.02 16.6 337.74 16.6 337.74 46.16 357.4 46.16 357.4 39.06 346.73 39.06 346.73 35.42"/>
        <path class="cls-2" d="M370.1,16.6l-9.68,29.57h9.63l.94-2.98h7.84l.94,2.98h9.7l-9.72-29.57h-9.64ZM372.51,36.24l2.33-8.33h.15l2.37,8.33h-4.86Z"/>
        <polygon class="cls-2" points="417.6 16.6 409.23 29.35 400.89 16.6 393.39 16.6 393.39 46.16 402.42 46.16 402.42 39.97 402.34 33.73 402.46 33.69 406.66 40.28 411.79 40.28 416 33.73 416.11 33.73 416.04 39.97 416.04 46.16 425.06 46.16 425.06 16.6 417.6 16.6"/>
        <path class="cls-2" d="M106.2,18.38c-2.18-1.21-4.72-1.82-7.62-1.82h-11.91v29.64h11.91c2.9,0,5.44-.61,7.62-1.82,2.18-1.21,3.87-2.94,5.06-5.19,1.2-2.24,1.8-4.85,1.8-7.81s-.6-5.57-1.8-7.81c-1.2-2.24-2.89-3.97-5.06-5.19ZM102.36,35.64c-.98,1.03-2.33,1.55-4.04,1.55h-2.61v-11.6h2.61c1.71,0,3.06.52,4.04,1.55.98,1.03,1.47,2.45,1.47,4.26s-.49,3.23-1.47,4.26Z"/>
        <path class="cls-2" d="M272.13,31.23c-1.85-1.62-4.79-2.81-8.8-3.57-1.93-.37-3.29-.78-4.07-1.24-.78-.46-1.17-1.05-1.17-1.79,0-.61.25-1.1.74-1.47.49-.37,1.16-.55,2.02-.55.98,0,1.74.27,2.28.8.48.48.74,1.17.79,2.04v.63h10.37s.03-.59.03-.71c-.08-2.08-.65-3.91-1.71-5.49-1.12-1.66-2.7-2.94-4.73-3.82-2.04-.89-4.44-1.33-7.19-1.33-4.05,0-7.22.9-9.54,2.7-2.31,1.8-3.47,4.27-3.47,7.42,0,2.81.9,5.04,2.71,6.69,1.81,1.65,4.61,2.79,8.41,3.43,1.84.31,3.18.71,4.02,1.21.84.5,1.26,1.15,1.26,1.95,0,.64-.25,1.14-.74,1.49-.49.35-1.18.53-2.07.53-1.04,0-1.84-.27-2.39-.82-.53-.53-.8-1.28-.83-2.26,0-.04,0-.13,0-.13v-.71h-10.62v.77c0,.11,0,.22,0,.33.09,3.36,1.3,5.98,3.65,7.88,2.44,1.97,5.85,2.95,10.23,2.95s7.63-.92,10.02-2.75c2.39-1.83,3.59-4.38,3.59-7.65,0-2.75-.93-4.93-2.78-6.55Z"/>
      </g>
      <g>
        <circle class="cls-2" cx="31.06" cy="31.06" r="31.06"/>
        <g>
          <path class="cls-1" d="M16.52,11.79v38.55s15.46,0,15.46,0c3.76,0,7.06-.79,9.89-2.37,2.83-1.58,5.02-3.83,6.57-6.75,1.55-2.92,2.33-6.31,2.33-10.16s-.78-7.24-2.33-10.16c-1.55-2.92-3.75-5.17-6.57-6.75-2.83-1.58-6.13-2.37-9.89-2.37h-15.46ZM22.72,17.92h9.89c2.41,0,4.51.54,6.33,1.61,1.81,1.08,3.21,2.61,4.21,4.6.99,1.99,1.49,4.3,1.49,6.93,0,2.63-.5,4.94-1.49,6.93-.99,1.99-2.4,3.52-4.21,4.6-1.81,1.08-3.92,1.61-6.33,1.61h-9.89v-26.28Z"/>
          <path class="cls-1" d="M34.6,38.85c-2.52,0-4.5-.69-5.95-2.07-1.44-1.38-2.17-3.29-2.17-5.71,0-2.42.72-4.33,2.17-5.71,1.45-1.38,3.43-2.07,5.95-2.07h3.83v15.57h-3.83Z"/>
        </g>
      </g>
    </g>
  </g>
</svg>